<?xml version="1.0" encoding="utf-8"?>
<!-- Generator: Adobe Illustrator 25.4.1, SVG Export Plug-In . SVG Version: 6.00 Build 0)  -->
<svg version="1.1" id="Layer_1" xmlns="http://www.w3.org/2000/svg" xmlns:xlink="http://www.w3.org/1999/xlink" x="0px" y="0px"
	 viewBox="0 0 1000 1000" style="enable-background:new 0 0 1000 1000;" xml:space="preserve">
<style type="text/css">
	.st0{fill:#090909;}
	.st1{fill:#FFFFFF;stroke:#010101;stroke-width:2;stroke-miterlimit:10;}
	.st2{fill:#FBF9FB;}
	.st3{fill:#070707;}
	.st4{fill:#F8F7F7;}
	.st5{fill:#FFFFFF;}
	.st6{fill:#030303;}
</style>
<g>
	<path d="M498.5,623.9c-20.1,0-37.2-5.1-43-12.3c-1.4,1.7-2.2,3.5-2.2,5.4c0,9.8,20.2,17.7,45.2,17.7c24.9,0,45.2-7.9,45.2-17.7
		c0-1.9-0.8-3.7-2.2-5.4C535.6,618.8,518.6,623.9,498.5,623.9z"/>
	<path class="st0" d="M336.1,317.4c-17.2-28.1-13.5-62.9,7.2-83.4c16.9-16.7,42.4-21.2,63.7-14.8c22.3,6.7,33.9,23.4,37.2,28.4"/>
	<path class="st0" d="M653.8,323c18.7-27.1,17-62-2.6-83.7c-16-17.6-41.2-23.5-62.8-18.3c-22.6,5.4-35.2,21.5-38.7,26.3"/>
	<ellipse class="st1" cx="493" cy="369.9" rx="171.9" ry="129.6"/>
	<g>
		<g>
			<path class="st0" d="M546,307c0,0-15.5-1.5-22.9,19.1c-7.5,20.6,6.3,70.9,14,81.4c7.6,10.5,19.9,17.4,31.7,19.5
				c11.8,2.1,16.4-1,16.4-1s44.1-40.5,36.7-69.9S563,309.3,563,309.3S551.1,306.4,546,307z"/>
			<circle class="st2" cx="557.9" cy="355.6" r="25.5"/>
		</g>
		<g>
			<ellipse class="st3" cx="556.3" cy="353.4" rx="21.3" ry="20.8"/>
			<circle class="st2" cx="549" cy="345.1" r="5.4"/>
			<circle class="st4" cx="553.3" cy="354.4" r="1.9"/>
		</g>
	</g>
	<g>
		<g>
			<path class="st0" d="M440,307c0,0,15.5-1.5,22.9,19.1s-6.3,70.9-14,81.4c-7.6,10.5-19.9,17.4-31.7,19.5s-16.4-1-16.4-1
				s-44.1-40.5-36.7-69.9s58.8-46.8,58.8-46.8S434.8,306.4,440,307z"/>
			<circle class="st2" cx="428.5" cy="355.6" r="25.5"/>
		</g>
		<g>
			<ellipse class="st3" cx="430.3" cy="353.4" rx="21.4" ry="20.8"/>
			<circle class="st2" cx="437.4" cy="345.1" r="5.4"/>
			<circle class="st4" cx="432.9" cy="354.4" r="1.9"/>
		</g>
	</g>
	<g>
		<ellipse class="st3" cx="495.4" cy="411.4" rx="21.8" ry="11.6"/>
		<ellipse class="st5" cx="502" cy="405.9" rx="9.1" ry="3.8"/>
		<rect x="493.6" y="422.3" class="st3" width="3.3" height="20.1"/>
		<path class="st3" d="M493.6,438c0,0-5.9,3-10.1,3.5s-11.3,0.6-13.9-4.3c-2.6-4.8-4.5-8.2-4.5-8.2s-5.9-1.8-3.8,3.1
			c2.1,5,6.7,11.7,11.9,13.1s14.1,0,14.1,0s5-1.8,6.3-2.6C495,441.8,493.6,438,493.6,438z"/>
		<path class="st3" d="M497,438c0,0,5.9,3,10.1,3.5c4.3,0.5,11.3,0.6,13.9-4.3c2.7-4.8,4.5-8.2,4.5-8.2s5.9-1.8,3.8,3.1
			c-2.1,5-6.7,11.7-11.9,13.1c-5.2,1.4-14.1,0-14.1,0s-5-1.8-6.3-2.6C495.6,441.8,497,438,497,438z"/>
	</g>
	<g>
		<path class="st0" d="M391.9,476.2l-2.2,3.7c0,0-31.9,27.6-36.7,38.8c-4.8,11.2-4.3,22.7,0,27s5.5,5.7,16,5.7
			c10.5,0,30.8-6,41.4-15s15.3-13.6,15.3-13.6s12.4-15.2,13.6-18.1c1.2-2.9,3.1-9.5,3.1-9.5L391.9,476.2z"/>
		<path class="st0" d="M601.8,472.1l2.2,3.7c0,0,31.9,27.6,36.7,38.8s4.3,22.7,0,27s-5.5,5.7-16,5.7s-30.8-6-41.3-15
			c-10.5-9-15.3-13.6-15.3-13.6s-12.4-15.2-13.6-18.1c-1.2-2.9-3.1-9.5-3.1-9.5L601.8,472.1z"/>
		<g>
			<circle class="st6" cx="414.1" cy="592.1" r="54"/>
			<circle class="st5" cx="415.3" cy="603.1" r="37.5"/>
		</g>
		<g>
			<circle class="st6" cx="585.4" cy="592.1" r="54"/>
			<circle class="st5" cx="584.3" cy="603.1" r="37.5"/>
		</g>
	</g>
</g>
</svg>
